<svg xmlns="http://www.w3.org/2000/svg" width="45.072" height="45.072" viewBox="0 0 45.072 45.072">
  <path id="Icon_material-do-not-disturb" data-name="Icon material-do-not-disturb" d="M25.536,3A22.536,22.536,0,1,0,48.072,25.536,22.544,22.544,0,0,0,25.536,3Zm0,40.565A18.024,18.024,0,0,1,7.507,25.536a17.809,17.809,0,0,1,3.809-11.043L36.579,39.756A17.809,17.809,0,0,1,25.536,43.565Zm14.22-6.986L14.493,11.316A17.809,17.809,0,0,1,25.536,7.507,18.024,18.024,0,0,1,43.565,25.536,17.809,17.809,0,0,1,39.756,36.579Z" transform="translate(-3 -3)" fill="#ff8484"/>
</svg>